<svg width="251" height="62" viewBox="0 0 251 62" fill="none" xmlns="http://www.w3.org/2000/svg">
<g filter="url(#filter0_d_13_304)">
<path d="M6.96 14.108C8.832 14.108 10.872 14.492 13.08 15.26C15.312 16.028 17.376 17.036 19.272 18.284C21.192 19.532 22.788 21.032 24.06 22.784C25.356 24.536 26.004 26.312 26.004 28.112C26.004 29.456 24.912 31.136 22.728 33.152C20.568 35.144 18.06 36.872 15.204 38.336C12.348 39.8 10.008 40.532 8.184 40.532C7.776 40.532 7.116 40.004 6.204 38.948C5.316 37.868 4.872 37.076 4.872 36.572C4.872 35.588 5.52 32.852 6.816 28.364C8.136 23.852 8.952 20.756 9.264 19.076C8.4 18.5 7.68 17.816 7.104 17.024C6.528 16.208 6.24 15.524 6.24 14.972C6.24 14.396 6.48 14.108 6.96 14.108ZM20.82 27.104C20.82 26.336 20.112 25.328 18.696 24.08C17.28 22.808 15.636 21.752 13.764 20.912C13.62 22.712 12.6 26.564 10.704 32.468C10.608 32.78 10.452 33.296 10.236 34.016C10.044 34.712 9.9 35.18 9.804 35.42C12.156 34.628 14.58 33.296 17.076 31.424C19.572 29.528 20.82 28.088 20.82 27.104ZM32.9526 36.896C34.2486 36.32 35.3766 35.156 36.3366 33.404C37.2966 31.652 37.7766 30.008 37.7766 28.472C37.7766 26.936 37.5606 25.88 37.1286 25.304C36.0966 25.904 35.0646 27.164 34.0326 29.084C33.0246 31.004 32.5206 32.696 32.5206 34.16C32.5206 35.6 32.6646 36.512 32.9526 36.896ZM27.6966 34.52C27.6966 31.52 28.6206 28.676 30.4686 25.988C32.3406 23.3 34.1886 21.956 36.0126 21.956C37.8366 21.956 39.3726 22.604 40.6206 23.9C41.8686 25.172 42.4926 26.72 42.4926 28.544C42.4926 30.344 42.0606 32.18 41.1966 34.052C40.3326 35.924 39.1206 37.484 37.5606 38.732C36.0006 39.956 34.3326 40.568 32.5566 40.568C31.2366 40.568 30.0966 39.98 29.1366 38.804C28.1766 37.628 27.6966 36.2 27.6966 34.52ZM58.5145 29.768C58.8745 30.176 59.0545 30.668 59.0545 31.244C59.0545 31.82 58.8145 32.528 58.3345 33.368C57.7345 34.808 57.2065 36.596 56.7505 38.732C56.2945 40.868 55.8385 42.572 55.3825 43.844C54.9505 45.14 54.4705 46.244 53.9425 47.156C53.4385 48.068 52.7425 48.824 51.8545 49.424C50.9665 50.024 49.9465 50.324 48.7945 50.324C47.1865 50.324 45.7465 49.796 44.4745 48.74C43.2025 47.684 42.5665 46.772 42.5665 46.004C42.5665 45.26 42.7705 44.576 43.1785 43.952C43.5865 43.352 43.9585 43.052 44.2945 43.052C44.6545 43.052 44.9905 43.244 45.3025 43.628C45.6385 44.012 45.9385 44.42 46.2025 44.852C46.4905 45.308 46.8625 45.728 47.3185 46.112C47.7745 46.496 48.2785 46.688 48.8305 46.688C49.3825 46.688 49.8865 46.328 50.3425 45.608C50.7985 44.888 51.1465 44.108 51.3865 43.268C51.9865 41.3 52.3585 39.896 52.5025 39.056C50.8705 40.064 49.5385 40.568 48.5065 40.568C47.4985 40.568 46.5145 40.016 45.5545 38.912C44.5945 37.784 44.1145 36.728 44.1145 35.744C44.1145 34.736 44.3785 33.488 44.9065 32C45.4585 30.488 46.1545 28.988 46.9945 27.5C47.8585 25.988 48.9385 24.692 50.2345 23.612C51.5545 22.532 52.8745 21.992 54.1945 21.992C55.0825 21.992 55.8385 22.22 56.4625 22.676C57.0865 23.108 57.5425 23.696 57.8305 24.44C58.3345 25.736 58.5865 27.2 58.5865 28.832C58.5865 29.072 58.5625 29.384 58.5145 29.768ZM48.5425 35.564C48.5425 35.876 48.6745 36.032 48.9385 36.032C49.6345 36.032 50.7625 35.396 52.3225 34.124C53.8825 32.852 54.9265 31.592 55.4545 30.344V29.66C55.4545 28.1 55.3105 27.152 55.0225 26.816C54.8785 26.648 54.6865 26.564 54.4465 26.564C53.2945 26.564 52.0225 27.776 50.6305 30.2C49.2385 32.624 48.5425 34.412 48.5425 35.564ZM75.8466 29.768C76.2066 30.176 76.3866 30.668 76.3866 31.244C76.3866 31.82 76.1466 32.528 75.6666 33.368C75.0666 34.808 74.5386 36.596 74.0826 38.732C73.6266 40.868 73.1706 42.572 72.7146 43.844C72.2826 45.14 71.8026 46.244 71.2746 47.156C70.7706 48.068 70.0746 48.824 69.1866 49.424C68.2986 50.024 67.2786 50.324 66.1266 50.324C64.5186 50.324 63.0786 49.796 61.8066 48.74C60.5346 47.684 59.8986 46.772 59.8986 46.004C59.8986 45.26 60.1026 44.576 60.5106 43.952C60.9186 43.352 61.2906 43.052 61.6266 43.052C61.9866 43.052 62.3226 43.244 62.6346 43.628C62.9706 44.012 63.2706 44.42 63.5346 44.852C63.8226 45.308 64.1946 45.728 64.6506 46.112C65.1066 46.496 65.6106 46.688 66.1626 46.688C66.7146 46.688 67.2186 46.328 67.6746 45.608C68.1306 44.888 68.4786 44.108 68.7186 43.268C69.3186 41.3 69.6906 39.896 69.8346 39.056C68.2026 40.064 66.8706 40.568 65.8386 40.568C64.8306 40.568 63.8466 40.016 62.8866 38.912C61.9266 37.784 61.4466 36.728 61.4466 35.744C61.4466 34.736 61.7106 33.488 62.2386 32C62.7906 30.488 63.4866 28.988 64.3266 27.5C65.1906 25.988 66.2706 24.692 67.5666 23.612C68.8866 22.532 70.2066 21.992 71.5266 21.992C72.4146 21.992 73.1706 22.22 73.7946 22.676C74.4186 23.108 74.8746 23.696 75.1626 24.44C75.6666 25.736 75.9186 27.2 75.9186 28.832C75.9186 29.072 75.8946 29.384 75.8466 29.768ZM65.8746 35.564C65.8746 35.876 66.0066 36.032 66.2706 36.032C66.9666 36.032 68.0946 35.396 69.6546 34.124C71.2146 32.852 72.2586 31.592 72.7866 30.344V29.66C72.7866 28.1 72.6426 27.152 72.3546 26.816C72.2106 26.648 72.0186 26.564 71.7786 26.564C70.6266 26.564 69.3546 27.776 67.9626 30.2C66.5706 32.624 65.8746 34.412 65.8746 35.564ZM92.3866 22.892C92.5306 22.292 92.9266 21.992 93.5746 21.992C94.2226 21.992 94.8826 22.4 95.5546 23.216C96.2506 24.032 96.5986 24.956 96.5986 25.988C96.5986 26.588 96.3826 27.536 95.9506 28.832C95.5186 30.128 95.2066 31.052 95.0146 31.604C94.8466 32.156 94.5946 32.912 94.2586 33.872C93.9226 34.808 93.6106 35.684 93.3226 36.5C93.0586 37.292 92.6866 38.36 92.2066 39.704C91.7506 41.048 91.3306 42.296 90.9466 43.448C90.2026 45.608 89.2906 47.276 88.2106 48.452C87.1546 49.628 85.7746 50.216 84.0706 50.216C82.3666 50.216 80.8426 49.76 79.4986 48.848C78.1546 47.96 77.4826 47.06 77.4826 46.148C77.4826 45.596 77.7226 44.984 78.2026 44.312C78.7066 43.64 79.1266 43.304 79.4626 43.304C79.8226 43.304 80.2786 43.58 80.8306 44.132C81.4066 44.708 81.9946 45.272 82.5946 45.824C83.1946 46.4 83.7226 46.688 84.1786 46.688C84.4906 46.688 84.7426 46.544 84.9346 46.256C85.1506 45.968 85.3186 45.704 85.4386 45.464C85.5826 45.248 85.7266 44.936 85.8706 44.528C86.0146 44.144 86.1466 43.784 86.2666 43.448C86.3866 43.112 86.5306 42.668 86.6986 42.116C86.8666 41.564 87.0106 41.072 87.1306 40.64C87.5386 39.344 87.8866 38.192 88.1746 37.184C87.3826 38.216 86.5666 39.044 85.7266 39.668C84.8866 40.268 84.1066 40.568 83.3866 40.568C82.6906 40.568 81.8146 40.04 80.7586 38.984C79.7266 37.904 79.2106 36.728 79.2106 35.456C79.2106 34.16 79.4866 32.432 80.0386 30.272C80.6146 28.112 81.3226 26.192 82.1626 24.512C83.0026 22.832 83.7466 21.992 84.3946 21.992C85.1386 21.992 85.8346 22.316 86.4826 22.964C87.1546 23.588 87.4906 24.2 87.4906 24.8C87.4906 25.376 87.1906 26.312 86.5906 27.608C86.0146 28.904 85.4266 30.32 84.8266 31.856C84.2266 33.392 83.9266 34.7 83.9266 35.78C83.9266 35.924 83.9866 35.996 84.1066 35.996C84.4186 35.996 85.0786 35.42 86.0866 34.268C87.0946 33.092 88.2226 31.436 89.4706 29.3C90.7426 27.14 91.7146 25.004 92.3866 22.892Z" fill="#4D2B31"/>
</g>
<g filter="url(#filter1_d_13_304)">
<path d="M189.848 13.64C190.448 13.64 191.18 14.036 192.044 14.828C192.908 15.62 193.34 16.436 193.34 17.276C193.34 19.58 192.152 24.044 189.776 30.668C188.96 32.996 188.552 34.616 188.552 35.528C188.552 35.648 188.576 35.72 188.624 35.744C188.672 35.768 189.116 35.78 189.956 35.78C190.796 35.78 191.948 35.66 193.412 35.42C194.9 35.156 196.1 34.904 197.012 34.664C197.948 34.424 198.5 34.304 198.668 34.304C199.268 34.304 199.568 34.688 199.568 35.456C199.568 36.968 198.416 38.192 196.112 39.128C193.832 40.04 191.18 40.496 188.156 40.496C186.98 40.496 185.9 40.064 184.916 39.2C183.956 38.312 183.476 37.34 183.476 36.284C183.476 35.228 184.364 31.82 186.14 26.06C187.916 20.276 188.804 16.532 188.804 14.828C188.804 14.036 189.152 13.64 189.848 13.64ZM207.628 36.896C208.924 36.32 210.052 35.156 211.012 33.404C211.972 31.652 212.452 30.008 212.452 28.472C212.452 26.936 212.236 25.88 211.804 25.304C210.772 25.904 209.74 27.164 208.708 29.084C207.7 31.004 207.196 32.696 207.196 34.16C207.196 35.6 207.34 36.512 207.628 36.896ZM202.372 34.52C202.372 31.52 203.296 28.676 205.144 25.988C207.016 23.3 208.864 21.956 210.688 21.956C212.512 21.956 214.048 22.604 215.296 23.9C216.544 25.172 217.168 26.72 217.168 28.544C217.168 30.344 216.736 32.18 215.872 34.052C215.008 35.924 213.796 37.484 212.236 38.732C210.676 39.956 209.008 40.568 207.232 40.568C205.912 40.568 204.772 39.98 203.812 38.804C202.852 37.628 202.372 36.2 202.372 34.52ZM231.57 21.992C232.194 21.992 232.794 22.22 233.37 22.676C233.97 23.108 234.27 23.564 234.27 24.044C234.27 24.908 233.55 26.912 232.11 30.056C230.694 33.2 229.374 35.732 228.15 37.652C226.95 39.572 226.014 40.532 225.342 40.532C224.982 40.532 224.454 40.292 223.758 39.812C223.086 39.332 222.654 38.852 222.462 38.372C221.886 36.98 221.19 34.412 220.374 30.668C219.558 26.9 219.15 24.512 219.15 23.504C219.15 22.496 219.486 21.992 220.158 21.992C220.974 21.992 221.814 22.316 222.678 22.964C224.118 24.068 224.922 25.544 225.09 27.392C225.162 28.256 225.222 29.324 225.27 30.596C225.318 31.844 225.426 32.924 225.594 33.836C226.17 32.732 226.878 31.1 227.718 28.94C228.558 26.756 229.278 25.052 229.878 23.828C230.502 22.604 231.066 21.992 231.57 21.992ZM250.286 28.724C250.286 29.9 249.482 30.956 247.874 31.892C246.29 32.828 244.658 33.296 242.978 33.296C241.298 33.296 239.918 33.176 238.838 32.936C238.622 33.584 238.514 34.232 238.514 34.88C238.514 35.528 238.622 35.996 238.838 36.284C239.054 36.548 239.594 36.68 240.458 36.68C242.258 36.68 243.794 36.512 245.066 36.176C246.362 35.84 247.034 35.672 247.082 35.672C248.066 35.672 248.558 35.996 248.558 36.644C248.558 37.58 247.778 38.468 246.218 39.308C244.682 40.148 242.894 40.568 240.854 40.568C238.838 40.568 237.218 39.932 235.994 38.66C234.77 37.388 234.158 35.888 234.158 34.16C234.158 32.408 234.662 30.584 235.67 28.688C236.702 26.792 237.986 25.208 239.522 23.936C241.058 22.64 242.582 21.992 244.094 21.992C245.63 21.992 247.046 22.748 248.342 24.26C249.638 25.748 250.286 27.236 250.286 28.724ZM246.11 28.148C246.11 27.908 245.858 27.56 245.354 27.104C244.85 26.648 244.37 26.42 243.914 26.42C243.482 26.42 242.918 26.744 242.222 27.392C241.526 28.016 240.866 28.832 240.242 29.84C240.458 29.864 240.77 29.876 241.178 29.876C244.466 29.876 246.11 29.3 246.11 28.148Z" fill="#B8002B"/>
</g>
<g filter="url(#filter2_d_13_304)">
<path d="M125.448 21.5348C127.894 23.5584 127.317 28.2072 124.157 31.9181C120.998 35.629 116.454 36.9967 114.007 34.9731C111.561 32.9495 112.139 28.3007 115.298 24.5898C118.457 20.8789 123.001 19.5112 125.448 21.5348Z" fill="#4D2B31"/>
<path d="M131.122 34.023C134.625 35.6435 135.606 40.6478 133.109 45.9581C130.612 51.2684 125.542 54.2046 122.039 52.5841C118.535 50.9637 117.924 45.4003 120.421 40.09C122.918 34.7797 127.618 32.4026 131.122 34.023Z" fill="#4D2B31"/>
<path d="M154.021 29.1705C150.887 29.6833 149.04 33.9883 149.894 38.786C150.749 43.5836 153.982 47.0571 157.116 46.5443C160.249 46.0314 162.097 41.7264 161.242 36.9288C160.387 32.1312 157.154 28.6576 154.021 29.1705Z" fill="#4D2B31"/>
<path d="M143.541 37.2466C139.727 36.6435 136.075 40.2404 135.182 46.038C134.289 51.8356 136.862 57.0793 140.677 57.6824C144.491 58.2854 148.101 54.0193 148.995 48.2218C149.888 42.4242 147.355 37.8496 143.541 37.2466Z" fill="#4D2B31"/>
<path d="M157.433 20.5283C151.764 27.441 144.709 35.0947 137.707 33.2184C130.704 31.342 126.637 19.1171 126.172 12.1521C125.382 0.296908 140.166 3.49028 143.795 10.4963C149.208 5.91326 165.262 10.9828 157.433 20.5283Z" fill="#B8002B"/>
</g>
<defs>
<filter id="filter0_d_13_304" x="0.872009" y="14.108" width="95.7266" height="40.2159" filterUnits="userSpaceOnUse" color-interpolation-filters="sRGB">
<feFlood flood-opacity="0" result="BackgroundImageFix"/>
<feColorMatrix in="SourceAlpha" type="matrix" values="0 0 0 0 0 0 0 0 0 0 0 0 0 0 0 0 0 0 127 0" result="hardAlpha"/>
<feOffset dx="-2" dy="2"/>
<feGaussianBlur stdDeviation="1"/>
<feComposite in2="hardAlpha" operator="out"/>
<feColorMatrix type="matrix" values="0 0 0 0 0 0 0 0 0 0 0 0 0 0 0 0 0 0 0.3 0"/>
<feBlend mode="normal" in2="BackgroundImageFix" result="effect1_dropShadow_13_304"/>
<feBlend mode="normal" in="SourceGraphic" in2="effect1_dropShadow_13_304" result="shape"/>
</filter>
<filter id="filter1_d_13_304" x="179.476" y="13.64" width="70.8098" height="30.928" filterUnits="userSpaceOnUse" color-interpolation-filters="sRGB">
<feFlood flood-opacity="0" result="BackgroundImageFix"/>
<feColorMatrix in="SourceAlpha" type="matrix" values="0 0 0 0 0 0 0 0 0 0 0 0 0 0 0 0 0 0 127 0" result="hardAlpha"/>
<feOffset dx="-2" dy="2"/>
<feGaussianBlur stdDeviation="1"/>
<feComposite in2="hardAlpha" operator="out"/>
<feColorMatrix type="matrix" values="0 0 0 0 0 0 0 0 0 0 0 0 0 0 0 0 0 0 0.3 0"/>
<feBlend mode="normal" in2="BackgroundImageFix" result="effect1_dropShadow_13_304"/>
<feBlend mode="normal" in="SourceGraphic" in2="effect1_dropShadow_13_304" result="shape"/>
</filter>
<filter id="filter2_d_13_304" x="108.492" y="4.23962" width="52.9584" height="57.4996" filterUnits="userSpaceOnUse" color-interpolation-filters="sRGB">
<feFlood flood-opacity="0" result="BackgroundImageFix"/>
<feColorMatrix in="SourceAlpha" type="matrix" values="0 0 0 0 0 0 0 0 0 0 0 0 0 0 0 0 0 0 127 0" result="hardAlpha"/>
<feOffset dx="-2" dy="2"/>
<feGaussianBlur stdDeviation="1"/>
<feComposite in2="hardAlpha" operator="out"/>
<feColorMatrix type="matrix" values="0 0 0 0 0 0 0 0 0 0 0 0 0 0 0 0 0 0 0.3 0"/>
<feBlend mode="normal" in2="BackgroundImageFix" result="effect1_dropShadow_13_304"/>
<feBlend mode="normal" in="SourceGraphic" in2="effect1_dropShadow_13_304" result="shape"/>
</filter>
</defs>
</svg>
